<svg width="18" height="26" viewBox="0 0 18 26" fill="none" xmlns="http://www.w3.org/2000/svg">
<path d="M1.38708 5.46487C1.38708 3.99693 1.38708 3.26296 1.66536 2.702C1.91012 2.20878 2.30066 1.80779 2.78102 1.55648C3.32736 1.27075 4.0422 1.27075 5.47187 1.27075H12.6202C14.0499 1.27075 14.7648 1.27075 15.3111 1.55648C15.7915 1.80779 16.182 2.20878 16.4268 2.702C16.705 3.26296 16.705 3.99693 16.705 5.46487V22.9032C16.705 23.5402 16.705 23.8587 16.5761 24.033C16.5204 24.1089 16.4493 24.1713 16.3678 24.2161C16.2862 24.2609 16.1961 24.287 16.1038 24.2926C15.8906 24.3057 15.6328 24.1287 15.1171 23.7761L9.04606 19.62L2.97505 23.7748C2.45934 24.1287 2.20149 24.3057 1.98704 24.2926C1.89492 24.2868 1.80511 24.2607 1.72379 24.2159C1.64247 24.1711 1.57158 24.1087 1.51601 24.033C1.38708 23.8587 1.38708 23.5402 1.38708 22.9032V5.46487Z" stroke="black" stroke-width="1.5" stroke-linecap="round" stroke-linejoin="round"/>
</svg>
