<svg width="24" height="24" viewBox="0 0 24 24" fill="none" xmlns="http://www.w3.org/2000/svg">
<path d="M5.46995 6.015V18.529C5.46981 18.8864 5.5401 19.2403 5.6768 19.5704C5.8135 19.9006 6.01392 20.2006 6.26661 20.4533C6.51931 20.706 6.81932 20.9064 7.14951 21.0431C7.47969 21.1798 7.83358 21.2501 8.19095 21.25H15.8089C16.5303 21.25 17.2222 20.9634 17.7323 20.4533C18.2424 19.9432 18.5289 19.2514 18.5289 18.53V6.014M3.29395 6.015H20.7059" stroke="#F8F8F8" stroke-width="1.5" stroke-linecap="round" stroke-linejoin="round"/>
<path d="M8.73486 6.015V4.382C8.7346 4.16752 8.77667 3.9551 8.85865 3.75692C8.94064 3.55873 9.06093 3.37867 9.21263 3.22706C9.36434 3.07545 9.54447 2.95527 9.74271 2.8734C9.94094 2.79154 10.1534 2.7496 10.3679 2.75H13.6319C13.8463 2.7496 14.0588 2.79154 14.257 2.8734C14.4553 2.95527 14.6354 3.07545 14.7871 3.22706C14.9388 3.37867 15.0591 3.55873 15.1411 3.75692C15.2231 3.9551 15.2651 4.16752 15.2649 4.382V6.015M9.82387 16.992V11.553M14.1769 16.992V11.553" stroke="#F8F8F8" stroke-width="1.5" stroke-linecap="round" stroke-linejoin="round"/>
</svg>
