<svg width="25" height="24" viewBox="0 0 25 24" fill="none" xmlns="http://www.w3.org/2000/svg">
<path d="M19.3724 14.441V18.881C19.3721 19.5092 19.1187 20.1116 18.6679 20.5558C18.2172 21 17.6058 21.2497 16.9683 21.25H5.19571C4.87885 21.2499 4.56513 21.188 4.27259 21.068C3.98005 20.9481 3.71445 20.7723 3.49105 20.5509C3.26766 20.3294 3.09087 20.0667 2.97085 19.7777C2.85082 19.4887 2.78993 19.1792 2.79167 18.867V7.27898C2.78978 6.96723 2.8507 6.6582 2.9709 6.36982C3.0911 6.08144 3.26818 5.81944 3.49189 5.59899C3.7156 5.37855 3.98148 5.20404 4.27413 5.0856C4.56677 4.96715 4.88036 4.90712 5.19673 4.90898H9.70139" stroke="#ABABAB" stroke-width="1.5" stroke-linecap="round" stroke-linejoin="round"/>
<path d="M19.3724 8.99497L15.227 4.90897M6.9361 15.803V13.638C6.93813 13.281 7.08223 12.938 7.33694 12.685L17.0099 3.15297C17.1383 3.02507 17.2911 2.92354 17.4596 2.85424C17.628 2.78495 17.8087 2.74927 17.9913 2.74927C18.1738 2.74927 18.3545 2.78495 18.5229 2.85424C18.6914 2.92354 18.8442 3.02507 18.9726 3.15297L21.1554 5.30397C21.2852 5.43045 21.3882 5.58104 21.4585 5.74702C21.5288 5.91301 21.565 6.0911 21.565 6.27097C21.565 6.45084 21.5288 6.62892 21.4585 6.79491C21.3882 6.9609 21.2852 7.11149 21.1554 7.23797L11.4824 16.77C11.2252 17.0217 10.8778 17.1636 10.5153 17.165H8.31825C8.13666 17.1652 7.95681 17.1302 7.789 17.0618C7.62119 16.9935 7.46872 16.8932 7.34032 16.7666C7.21193 16.6401 7.11013 16.4899 7.04076 16.3245C6.9714 16.1591 6.93583 15.9819 6.9361 15.803Z" stroke="#ABABAB" stroke-width="1.5" stroke-linecap="round" stroke-linejoin="round"/>
</svg>
