<svg width="24" height="24" viewBox="0 0 24 24" fill="none" xmlns="http://www.w3.org/2000/svg">
<g clip-path="url(#clip0_312_1267)">
<path d="M3 17.0002H21C21.55 17.0002 22 17.4502 22 18.0002C22 18.5502 21.55 19.0002 21 19.0002H3C2.45 19.0002 2 18.5502 2 18.0002C2 17.4502 2.45 17.0002 3 17.0002ZM2.5 12.5702C2.86 12.7802 3.32 12.6502 3.53 12.2902L4 11.4702L4.48 12.3002C4.69 12.6602 5.15 12.7802 5.51 12.5802C5.87 12.3702 5.99 11.9202 5.79 11.5602L5.3 10.7202H6.25C6.66 10.7202 7 10.3802 7 9.97017C7 9.56017 6.66 9.22017 6.25 9.22017H5.3L5.77 8.40017C5.98 8.04017 5.86 7.58017 5.5 7.37017C5.32574 7.27316 5.12045 7.24815 4.92799 7.30047C4.73554 7.35279 4.57117 7.47829 4.47 7.65017L4 8.47017L3.53 7.65017C3.42883 7.47829 3.26446 7.35279 3.07201 7.30047C2.87955 7.24815 2.67426 7.27316 2.5 7.37017C2.14 7.58017 2.02 8.04017 2.23 8.40017L2.7 9.22017H1.75C1.34 9.22017 1 9.56017 1 9.97017C1 10.3802 1.34 10.7202 1.75 10.7202H2.7L2.22 11.5502C2.02 11.9102 2.14 12.3702 2.5 12.5702ZM10.5 12.5702C10.86 12.7802 11.32 12.6502 11.53 12.2902L12 11.4702L12.48 12.3002C12.69 12.6602 13.15 12.7802 13.51 12.5802C13.87 12.3702 13.99 11.9202 13.79 11.5602L13.31 10.7302H14.26C14.67 10.7302 15.01 10.3902 15.01 9.98017C15.01 9.57017 14.67 9.23017 14.26 9.23017H13.3L13.77 8.41017C13.8689 8.23734 13.896 8.0326 13.8455 7.83998C13.795 7.64736 13.671 7.48225 13.5 7.38017C13.4153 7.33091 13.3217 7.29882 13.2246 7.28573C13.1275 7.27264 13.0288 7.27881 12.9341 7.30388C12.8394 7.32895 12.7505 7.37244 12.6726 7.43186C12.5947 7.49127 12.5292 7.56545 12.48 7.65017L12 8.47017L11.53 7.65017C11.4813 7.56486 11.4162 7.49009 11.3383 7.43022C11.2605 7.37035 11.1715 7.32657 11.0766 7.30144C10.9816 7.27631 10.8826 7.27033 10.7854 7.28385C10.6881 7.29736 10.5945 7.3301 10.51 7.38017C10.15 7.59017 10.03 8.05017 10.24 8.41017L10.71 9.23017H9.75C9.65198 9.22884 9.55468 9.247 9.46374 9.2836C9.3728 9.32019 9.29004 9.37449 9.22026 9.44334C9.15049 9.51219 9.09508 9.59421 9.05727 9.68465C9.01946 9.77509 8.99999 9.87214 9 9.97017C9 10.3802 9.34 10.7202 9.75 10.7202H10.7L10.22 11.5502C10.02 11.9102 10.14 12.3702 10.5 12.5702ZM23 9.97017C23 9.56017 22.66 9.22017 22.25 9.22017H21.3L21.77 8.40017C21.8689 8.22734 21.896 8.0226 21.8455 7.82998C21.795 7.63736 21.671 7.47225 21.5 7.37017C21.4153 7.32091 21.3217 7.28882 21.2246 7.27573C21.1275 7.26264 21.0288 7.26881 20.9341 7.29388C20.8394 7.31895 20.7505 7.36244 20.6726 7.42186C20.5947 7.48127 20.5292 7.55545 20.48 7.64017L20 8.47017L19.53 7.65017C19.4813 7.56486 19.4162 7.49009 19.3383 7.43022C19.2605 7.37035 19.1715 7.32657 19.0766 7.30144C18.9816 7.27631 18.8826 7.27033 18.7854 7.28385C18.6881 7.29736 18.5945 7.3301 18.51 7.38017C18.15 7.59017 18.03 8.05017 18.24 8.41017L18.71 9.23017H17.76C17.6613 9.2279 17.5631 9.24535 17.4711 9.28149C17.3792 9.31763 17.2954 9.37173 17.2247 9.44063C17.1539 9.50953 17.0976 9.59185 17.059 9.68278C17.0204 9.7737 17.0004 9.8714 17 9.97017C17 10.3802 17.34 10.7202 17.75 10.7202H18.7L18.22 11.5502C18.1703 11.6353 18.1382 11.7294 18.1254 11.8271C18.1126 11.9248 18.1194 12.024 18.1455 12.119C18.1716 12.214 18.2164 12.3029 18.2773 12.3804C18.3381 12.4578 18.4139 12.5224 18.5 12.5702C18.86 12.7802 19.32 12.6502 19.53 12.2902L20 11.4702L20.48 12.3002C20.69 12.6602 21.15 12.7802 21.51 12.5802C21.87 12.3702 21.99 11.9202 21.79 11.5602L21.31 10.7302H22.26C22.66 10.7202 23 10.3802 23 9.97017Z" fill="#ABABAB"/>
</g>
<defs>
<clipPath id="clip0_312_1267">
<rect width="24" height="24" fill="white"/>
</clipPath>
</defs>
</svg>
