<svg width="32" height="32" viewBox="0 0 32 32" fill="none" xmlns="http://www.w3.org/2000/svg">
<path d="M8.38708 8.46487C8.38708 6.99693 8.38708 6.26296 8.66536 5.702C8.91012 5.20878 9.30066 4.80779 9.78102 4.55648C10.3274 4.27075 11.0422 4.27075 12.4719 4.27075H19.6202C21.0499 4.27075 21.7648 4.27075 22.3111 4.55648C22.7915 4.80779 23.182 5.20878 23.4268 5.702C23.705 6.26296 23.705 6.99693 23.705 8.46487V25.9032C23.705 26.5402 23.705 26.8587 23.5761 27.033C23.5204 27.1089 23.4493 27.1713 23.3678 27.2161C23.2862 27.2609 23.1961 27.287 23.1038 27.2926C22.8906 27.3057 22.6328 27.1287 22.1171 26.7761L16.0461 22.62L9.97505 26.7748C9.45934 27.1287 9.20149 27.3057 8.98704 27.2926C8.89492 27.2868 8.80511 27.2607 8.72379 27.2159C8.64247 27.1711 8.57158 27.1087 8.51601 27.033C8.38708 26.8587 8.38708 26.5402 8.38708 25.9032V8.46487Z" fill="#089000" stroke="#089000" stroke-width="1.5" stroke-linecap="round" stroke-linejoin="round"/>
</svg>
